<?xml version="1.0" standalone="no"?>
<!DOCTYPE svg PUBLIC "-//W3C//DTD SVG 20010904//EN"
 "http://www.w3.org/TR/2001/REC-SVG-20010904/DTD/svg10.dtd">
<svg version="1.0" xmlns="http://www.w3.org/2000/svg"
 width="1707.000000pt" height="1707.000000pt" viewBox="0 0 1707.000000 1707.000000"
 preserveAspectRatio="xMidYMid meet">
<metadata>
Created by potrace 1.14, written by Peter Selinger 2001-2017
</metadata>
<g transform="translate(0.000000,1707.000000) scale(0.100000,-0.100000)"
fill="#000000" stroke="none">
<path d="M4005 14030 c-77 -4 -162 -12 -190 -19 -484 -113 -985 -513 -1498
-1196 -1089 -1450 -2032 -4019 -2266 -6175 -36 -327 -44 -540 -38 -1016 6
-532 22 -702 103 -1064 213 -953 735 -1473 1519 -1516 394 -22 822 134 1263
460 163 120 287 230 521 460 385 381 600 630 1126 1311 372 481 487 628 598
763 l110 132 3282 0 3282 0 110 -132 c60 -73 284 -358 498 -633 639 -822 769
-978 1105 -1319 260 -265 453 -440 626 -569 582 -437 1105 -566 1659 -411 110
30 327 135 415 200 241 176 414 404 553 725 277 640 352 1561 222 2714 -220
1937 -1032 4244 -2021 5740 -371 563 -811 1039 -1189 1288 -184 121 -425 223
-581 247 -97 15 -2125 26 -2264 12 -69 -6 -126 -18 -165 -34 -94 -38 -243
-136 -482 -316 -255 -191 -361 -263 -452 -305 l-66 -31 -260 -7 c-338 -9
-1646 -9 -1980 0 -252 7 -262 8 -318 34 -85 39 -233 138 -446 299 -283 215
-450 319 -562 349 -50 14 -1969 22 -2214 9z m8768 -1675 c136 -35 236 -114
294 -233 37 -75 38 -78 38 -191 -1 -99 -4 -123 -24 -166 -54 -120 -146 -203
-272 -245 -52 -18 -81 -21 -155 -18 -79 3 -100 8 -160 38 -85 41 -171 125
-210 207 -27 55 -29 65 -29 188 0 129 0 130 34 193 40 73 128 159 197 192 106
50 190 60 287 35z m-8293 -655 l0 -470 475 0 475 0 0 -82 c0 -46 -3 -188 -7
-315 l-6 -233 -468 0 -467 0 -4 -469 c-2 -258 -6 -473 -10 -477 -5 -4 -147 -9
-318 -12 l-310 -5 0 482 0 481 -475 0 -475 0 2 313 3 312 473 3 472 2 0 470 0
470 320 0 320 0 0 -470z m7236 -414 c120 -32 241 -132 291 -243 48 -105 42
-282 -14 -385 -33 -61 -125 -148 -190 -182 -113 -57 -264 -57 -382 0 -67 33
-169 132 -199 196 -53 109 -54 278 -2 385 49 99 162 193 275 229 53 17 158 17
221 0z m2150 0 c176 -47 297 -179 324 -353 46 -292 -203 -539 -496 -493 -145
22 -253 104 -324 246 -34 66 -35 73 -35 179 0 103 2 114 32 178 56 117 176
219 289 246 59 14 153 12 210 -3z m-1007 -1100 c64 -23 134 -79 185 -146 64
-86 81 -143 81 -270 0 -96 -3 -111 -29 -165 -41 -83 -136 -177 -223 -218 -64
-30 -75 -32 -178 -32 -103 0 -114 2 -178 32 -130 62 -224 189 -250 337 -13 77
-1 159 37 241 44 96 165 206 255 232 60 17 241 10 300 -11z m-5934 -1741 c237
-69 434 -235 545 -460 71 -145 84 -203 85 -370 0 -155 -19 -247 -75 -372 -56
-123 -182 -269 -303 -352 -69 -47 -200 -106 -282 -127 -103 -26 -313 -24 -420
5 -158 42 -296 123 -406 237 -188 198 -268 426 -239 690 14 129 38 212 98 329
38 75 63 107 146 190 142 141 279 215 465 250 111 21 272 13 386 -20z m3573
25 c170 -22 343 -106 477 -232 184 -173 265 -363 267 -623 1 -154 -22 -267
-77 -377 -171 -341 -519 -533 -885 -489 -105 13 -246 57 -318 98 -186 107
-348 300 -407 484 -49 155 -56 348 -19 492 36 143 132 305 240 408 205 193
446 273 722 239z"/>
</g>
</svg>
